<svg xmlns="http://www.w3.org/2000/svg" width="500" height="485" viewBox="0 0 500 485">
  <path fill="#ffffff" fill-rule="evenodd" d="M255.3712323,483.6158512c-49.0681808,0-71.8712149-6.9794583-111.5081916-34.8926949-25.0716665,31.4037029-104.4648546,55.944679-107.9271298,13.9573555,0-31.5204054-7.163332-58.1559851-15.281666-87.2332404C10.9837282,339.6239917,0,299.7297395,0,241.923862,0,103.8644842,116.2842508,0,254.0591208,0c137.8924176,0,245.9394213,108.9821369,245.9394213,243.2030512.4620986,132.1457298-108.9848703,239.7080174-244.6273098,240.4128ZM257.4015473,119.3336967c-67.0969908-3.3728676-119.3886633,41.8710763-130.9692616,112.8204559-9.5510636,58.7364912,7.4021173,130.266348,21.8480303,133.9887161,6.9242397,1.6277935,24.3545467-12.0961859,35.2197014-22.6797776,17.965145,12.0901151,38.8848455,19.3514575,60.6484901,21.052013,69.5227194,3.2570612,128.9272713-48.3059686,133.5969814-115.9618915,2.7166716-67.7984116-50.8121189-125.2232641-120.3439416-129.103117v-.116399Z"/>
</svg>
